# Blender v2.92.0 OBJ File: ''
# www.blender.org
mtllib pawn.mtl
o Pawn_Sphere
v 0.000000 4.467400 -0.923899
v 0.000000 4.850100 -0.999999
v 0.707100 4.850100 -0.707099
v 0.653300 4.467400 -0.653299
v 0.000000 5.232800 -0.923899
v 0.000000 5.557200 -0.707099
v 0.500000 5.557200 -0.499999
v 0.653300 5.232800 -0.653299
v 0.000000 5.774000 -0.382699
v 0.000000 5.850100 0.000001
v 0.270600 5.774000 -0.270599
v 0.000000 4.143000 -0.707099
v 0.500000 4.143000 -0.499999
v 0.000000 3.926200 -0.425799
v 0.298800 3.926200 -0.298799
v 0.923900 4.467400 0.000001
v 0.707100 4.143000 0.000001
v 0.923900 5.232800 0.000001
v 1.000000 4.850100 0.000001
v 0.382700 5.774000 0.000001
v 0.707100 5.557200 0.000001
v 0.270600 5.774000 0.270601
v 0.500000 5.557200 0.500001
v 0.707100 4.850100 0.707101
v 0.653300 4.467400 0.653301
v 0.653300 5.232800 0.653301
v 0.500000 4.143000 0.500001
v 0.298800 3.926200 0.298801
v 0.000000 4.143000 0.707101
v 0.000000 3.926200 0.425801
v 0.000000 4.850100 1.000001
v 0.000000 4.467400 0.923901
v 0.000000 5.557200 0.707101
v 0.000000 5.232800 0.923901
v 0.000000 5.774000 0.382701
v -0.270600 5.774000 0.270601
v -0.653300 4.467400 0.653301
v -0.500000 4.143000 0.500001
v -0.653300 5.232800 0.653301
v -0.707100 4.850100 0.707101
v -0.500000 5.557200 0.500001
v -0.301100 3.926200 0.301101
v -0.923900 4.467400 0.000001
v -0.707100 4.143000 0.000001
v -0.923900 5.232800 0.000001
v -1.000000 4.850100 0.000001
v -0.382700 5.774000 0.000001
v -0.707100 5.557200 0.000001
v -0.422500 3.926200 0.000001
v -0.500000 4.143000 -0.499999
v -0.298800 3.926200 -0.298799
v -0.707100 4.850100 -0.707099
v -0.653300 4.467400 -0.653299
v -0.500000 5.557200 -0.499999
v -0.653300 5.232800 -0.653299
v -0.270600 5.774000 -0.270599
v 0.425800 3.926200 0.000001
v 1.060700 0.640100 1.060700
v 0.000000 0.640100 1.500000
v 0.000000 -0.000000 1.500000
v 1.060700 -0.000000 1.060700
v -1.060700 0.640100 1.060700
v -1.060700 -0.000000 1.060700
v -1.500000 0.640100 0.000000
v -1.500000 0.000000 0.000000
v -1.060700 0.640100 -1.060700
v -1.060700 0.000000 -1.060700
v 0.000000 0.640100 -1.500000
v 0.000000 0.000000 -1.500000
v 0.898800 1.902300 0.898800
v 0.795900 1.682000 0.795900
v 1.125500 1.682000 0.000000
v 1.271100 1.902300 0.000000
v 1.500000 0.640100 0.000000
v 1.500000 0.000000 0.000000
v 1.060700 0.000000 -1.060700
v 1.533800 1.083800 0.000000
v 1.432100 0.849600 0.000000
v 1.012600 0.849600 -1.012600
v 1.084600 1.083800 -1.084600
v -1.533500 1.185100 0.000000
v -1.084300 1.185100 -1.084300
v -1.084600 1.083800 -1.084600
v -1.533800 1.083800 0.000000
v 0.000000 1.185100 -1.533500
v 0.000000 1.083800 -1.533800
v 0.000000 1.902300 -1.271100
v 0.000000 1.682000 -1.125500
v -0.795900 1.682000 -0.795900
v -0.898800 1.902300 -0.898800
v -1.125500 1.682000 0.000000
v -1.271100 1.902300 0.000000
v -0.795900 1.682000 0.795900
v -0.898800 1.902300 0.898800
v 0.000000 1.682000 1.125500
v 0.000000 1.902300 1.271100
v 0.629400 2.100000 -0.629400
v 0.890200 2.100000 0.000000
v 1.147000 2.031800 0.000000
v 0.811000 2.031800 -0.811000
v 0.795900 1.682000 -0.795900
v 0.898800 1.902300 -0.898800
v -0.811000 2.031800 -0.811000
v -0.629400 2.100000 -0.629400
v 0.000000 2.100000 -0.890200
v 0.000000 2.031800 -1.147000
v -0.890200 2.100000 0.000000
v -1.147000 2.031800 0.000000
v -0.629400 2.100000 0.629400
v -0.811000 2.031800 0.811000
v 0.000000 2.100000 0.890200
v 0.000000 2.031800 1.147000
v 0.629400 2.100000 0.629400
v 0.811000 2.031800 0.811000
v 0.000000 0.849600 -1.432100
v 1.084300 1.185100 1.084300
v 1.533500 1.185100 0.000000
v 0.000000 1.185100 1.533500
v -1.084300 1.185100 1.084300
v 1.060700 0.640100 -1.060700
v 1.012600 0.849600 1.012600
v 0.000000 0.849600 1.432100
v -1.012600 0.849600 1.012600
v -1.432100 0.849600 0.000000
v -1.012600 0.849600 -1.012600
v -1.084600 1.083800 1.084600
v 0.000000 1.083800 1.533800
v 1.084600 1.083800 1.084600
v 1.084300 1.185100 -1.084300
v -0.499700 3.629600 -0.499699
v -0.706600 3.629600 0.000001
v -0.499700 3.629600 0.499701
v 0.000000 3.629600 0.706601
v 0.499700 3.629600 0.499701
v 0.706600 3.629600 0.000001
v 0.499700 3.629600 -0.499699
v 0.000000 3.629600 -0.706599
v 0.434500 3.483600 0.000001
v 0.307200 3.483600 -0.307199
v 0.000000 3.483600 0.434501
v 0.307200 3.483600 0.307201
v -0.434500 3.483600 0.000001
v -0.307200 3.483600 0.307201
v 0.000000 3.483600 -0.434499
v -0.307200 3.483600 -0.307199
v -0.410800 2.780200 -0.410800
v -0.580900 2.780200 0.000000
v -0.410800 2.780200 0.410800
v 0.000000 2.780200 0.580900
v 0.410800 2.780200 0.410800
v 0.580900 2.780200 0.000000
v 0.410800 2.780200 -0.410800
v 0.000000 2.780200 -0.580900
vt 0.750000 0.375000
vt 0.750000 0.500000
vt 0.625000 0.500000
vt 0.625000 0.375000
vt 0.750000 0.625000
vt 0.750000 0.750000
vt 0.625000 0.750000
vt 0.625000 0.625000
vt 0.750000 0.875000
vt 0.687500 1.000000
vt 0.625000 0.875000
vt 0.750000 0.250000
vt 0.625000 0.250000
vt 0.750000 0.125000
vt 0.625000 0.125000
vt 0.500000 0.375000
vt 0.500000 0.250000
vt 0.500000 0.625000
vt 0.500000 0.500000
vt 0.500000 0.875000
vt 0.500000 0.750000
vt 0.562500 1.000000
vt 0.375000 0.875000
vt 0.375000 0.750000
vt 0.375000 0.500000
vt 0.375000 0.375000
vt 0.375000 0.625000
vt 0.437500 1.000000
vt 0.375000 0.250000
vt 0.375000 0.125000
vt 0.250000 0.250000
vt 0.250000 0.125000
vt 0.250000 0.500000
vt 0.250000 0.375000
vt 0.250000 0.750000
vt 0.250000 0.625000
vt 0.312500 1.000000
vt 0.250000 0.875000
vt 0.187500 1.000000
vt 0.125000 0.875000
vt 0.125000 0.375000
vt 0.125000 0.250000
vt 0.125000 0.625000
vt 0.125000 0.500000
vt 0.125000 0.750000
vt 0.125000 0.125000
vt 0.000000 0.375000
vt 0.000000 0.250000
vt 0.000000 0.625000
vt 0.000000 0.500000
vt 0.000000 0.875000
vt 0.000000 0.750000
vt 0.000000 0.125000
vt 0.062500 1.000000
vt 1.000000 0.125000
vt 1.000000 0.250000
vt 0.875000 0.250000
vt 0.875000 0.125000
vt 1.000000 0.375000
vt 1.000000 0.500000
vt 0.875000 0.500000
vt 0.875000 0.375000
vt 1.000000 0.625000
vt 1.000000 0.750000
vt 0.875000 0.750000
vt 0.875000 0.625000
vt 1.000000 0.875000
vt 0.937500 1.000000
vt 0.875000 0.875000
vt 0.812500 1.000000
vt 0.516238 0.125000
vt 0.625000 0.626098
vt 0.500000 0.626098
vt 0.500000 0.500000
vt 0.625000 0.500000
vt 0.375000 0.626098
vt 0.375000 0.500000
vt 0.250000 0.626098
vt 0.250000 0.500000
vt 0.125000 0.626098
vt 0.125000 0.500000
vt 0.000000 0.626098
vt 0.000000 0.500000
vt 0.625000 0.946533
vt 0.625000 0.900741
vt 0.750000 0.900741
vt 0.750000 0.946533
vt 0.750000 0.626098
vt 0.750000 0.500000
vt 0.750000 0.490000
vt 0.919706 0.419706
vt 0.990000 0.250000
vt 0.919706 0.080294
vt 0.750000 0.010000
vt 0.580294 0.080294
vt 0.510000 0.250000
vt 0.580295 0.419706
vt 0.750000 0.742433
vt 0.750000 0.706162
vt 0.875000 0.706162
vt 0.875000 0.742433
vt 0.250000 0.765748
vt 0.125000 0.765748
vt 0.125000 0.742433
vt 0.250000 0.742433
vt 0.000729 0.765748
vt 0.000168 0.742433
vt 0.000323 0.946533
vt 0.000000 0.900741
vt 0.125000 0.900741
vt 0.125000 0.946533
vt 0.250000 0.900741
vt 0.250000 0.946533
vt 0.375000 0.900741
vt 0.375000 0.946533
vt 0.500000 0.900741
vt 0.500000 0.946533
vt 0.875000 1.000000
vt 0.750000 1.000000
vt 0.750000 0.979156
vt 0.875000 0.979156
vt 0.875000 0.900741
vt 0.875000 0.946533
vt 0.125000 0.979156
vt 0.125000 1.000000
vt 0.000000 1.000000
vt 0.000000 0.979156
vt 0.250000 1.000000
vt 0.250000 0.979156
vt 0.375000 1.000000
vt 0.375000 0.979156
vt 0.500000 1.000000
vt 0.500000 0.979156
vt 0.625000 1.000000
vt 0.625000 0.979156
vt 1.000063 0.706162
vt 0.999832 0.742433
vt 0.625000 0.765748
vt 0.750000 0.765748
vt 0.500000 0.765748
vt 0.375000 0.765748
vt 1.000000 0.626098
vt 0.875000 0.626098
vt 0.875000 0.500000
vt 1.000000 0.500000
vt 1.000000 0.900741
vt 0.999677 0.946533
vt 1.000000 1.000000
vt 1.000000 0.979156
vt 0.625000 0.706162
vt 0.500000 0.706162
vt 0.375000 0.706162
vt 0.250000 0.706162
vt 0.125000 0.706162
vt -0.000063 0.706162
vt 0.375000 0.742433
vt 0.500000 0.742433
vt 0.625000 0.742433
vt 0.875000 0.765748
vt 0.999271 0.765748
vt 0.625000 1.000000
vt 0.750000 1.000000
vt 0.875000 1.000000
vt 0.000000 1.000000
vt 0.125000 1.000000
vt 0.250000 1.000000
vt 0.375000 1.000000
vt 0.500000 1.000000
vt 0.125000 1.000000
vt 0.250000 1.000000
vt 0.375000 1.000000
vt 0.500000 1.000000
vt 0.625000 1.000000
vt 0.750000 1.000000
vt 0.875000 1.000000
vt 1.000000 1.000000
vt 1.000000 1.000000
vt 0.000000 1.000000
vt 0.750000 1.000000
vt 0.875000 1.000000
vt 0.500000 1.000000
vt 0.625000 1.000000
vt 0.250000 1.000000
vt 0.375000 1.000000
vt 0.000000 1.000000
vt 0.125000 1.000000
vt 1.000000 1.000000
vt 0.125000 1.000000
vt 0.250000 1.000000
vt 0.375000 1.000000
vt 0.500000 1.000000
vt 0.625000 1.000000
vt 0.750000 1.000000
vt 0.875000 1.000000
vt 1.000000 1.000000
vt 0.000000 1.000000
vn 0.3764 -0.1807 -0.9087
vn 0.3256 0.5254 -0.7861
vn 0.0805 0.9776 -0.1944
vn 0.3256 -0.5254 -0.7861
vn 0.3764 0.1807 -0.9087
vn 0.2243 0.8102 -0.5415
vn 0.2463 -0.7697 -0.5890
vn 0.7861 -0.5254 -0.3256
vn 0.9087 0.1807 -0.3764
vn 0.5415 0.8102 -0.2243
vn 0.9087 -0.1807 -0.3764
vn 0.7861 0.5254 -0.3256
vn 0.1944 0.9776 -0.0805
vn 0.5415 0.8102 0.2243
vn 0.9087 -0.1807 0.3764
vn 0.7861 0.5254 0.3256
vn 0.1944 0.9776 0.0805
vn 0.7861 -0.5254 0.3256
vn 0.9087 0.1807 0.3764
vn 0.2463 -0.7697 0.5890
vn 0.3764 -0.1807 0.9087
vn 0.3256 0.5254 0.7861
vn 0.0805 0.9776 0.1944
vn 0.3256 -0.5254 0.7861
vn 0.3764 0.1807 0.9087
vn 0.2243 0.8102 0.5415
vn -0.0805 0.9776 0.1944
vn -0.3256 -0.5254 0.7861
vn -0.3764 0.1807 0.9087
vn -0.2243 0.8102 0.5415
vn -0.2451 -0.7679 0.5918
vn -0.3764 -0.1807 0.9087
vn -0.3256 0.5254 0.7861
vn -0.7861 -0.5254 0.3256
vn -0.9087 0.1807 0.3764
vn -0.5415 0.8102 0.2243
vn -0.5906 -0.7697 0.2422
vn -0.9087 -0.1807 0.3764
vn -0.7861 0.5254 0.3256
vn -0.1944 0.9776 0.0805
vn -0.5878 -0.7715 -0.2434
vn -0.9087 -0.1807 -0.3764
vn -0.7861 0.5254 -0.3256
vn -0.1944 0.9776 -0.0805
vn -0.7861 -0.5254 -0.3256
vn -0.9087 0.1807 -0.3764
vn -0.5415 0.8102 -0.2243
vn -0.3764 -0.1807 -0.9087
vn -0.3256 0.5254 -0.7861
vn -0.0805 0.9776 -0.1944
vn -0.3256 -0.5254 -0.7861
vn -0.3764 0.1807 -0.9087
vn -0.2243 0.8102 -0.5415
vn -0.2463 -0.7697 -0.5890
vn 0.5890 -0.7697 0.2463
vn 0.5890 -0.7697 -0.2463
vn 0.3826 -0.0000 0.9239
vn -0.3826 -0.0000 0.9239
vn -0.9239 0.0000 0.3826
vn -0.9239 0.0000 -0.3826
vn -0.3826 0.0000 -0.9239
vn 0.7886 -0.5210 0.3266
vn 0.9239 0.0000 0.3826
vn 0.0000 -1.0000 -0.0000
vn 0.8574 -0.3725 -0.3551
vn -0.9239 0.0033 -0.3827
vn -0.3827 0.0033 -0.9239
vn -0.3266 -0.5210 -0.7886
vn -0.7886 -0.5210 -0.3266
vn -0.7886 -0.5210 0.3266
vn -0.3266 -0.5210 0.7886
vn 0.3266 -0.5210 0.7886
vn 0.2552 0.9611 -0.1057
vn 0.7886 -0.5210 -0.3266
vn -0.1057 0.9611 -0.2552
vn -0.2552 0.9611 -0.1057
vn -0.2552 0.9611 0.1057
vn -0.1057 0.9611 0.2552
vn 0.1057 0.9611 0.2552
vn 0.2552 0.9611 0.1057
vn 0.3551 -0.3725 -0.8574
vn 0.7361 0.6043 0.3049
vn 0.3049 0.6043 0.7361
vn -0.3049 0.6043 0.7361
vn -0.7361 0.6043 0.3049
vn -0.7361 0.6043 -0.3049
vn -0.3049 0.6043 -0.7361
vn 0.3826 0.0000 -0.9239
vn 0.3266 -0.5210 -0.7886
vn 0.1057 0.9611 -0.2552
vn 0.2865 0.6630 -0.6916
vn 0.6916 0.6630 -0.2865
vn 0.6916 0.6630 0.2865
vn 0.2865 0.6630 0.6916
vn -0.2865 0.6630 0.6916
vn -0.6916 0.6630 0.2865
vn 0.8850 0.2871 -0.3666
vn 0.8851 0.2868 0.3666
vn 0.3666 0.2868 0.8851
vn -0.3666 0.2868 0.8851
vn -0.8850 0.2871 0.3666
vn -0.8851 0.2868 -0.3666
vn -0.3666 0.2868 -0.8851
vn -0.2865 0.6630 -0.6916
vn 0.3666 0.2868 -0.8851
vn -0.9239 0.0033 0.3827
vn -0.3827 0.0033 0.9239
vn -0.3551 -0.3725 -0.8574
vn 0.3827 0.0033 0.9239
vn -0.8574 -0.3725 -0.3551
vn 0.9239 0.0033 0.3827
vn -0.8574 -0.3725 0.3551
vn 0.9239 0.0033 -0.3827
vn -0.3551 -0.3725 0.8574
vn 0.3827 0.0033 -0.9239
vn 0.3551 -0.3725 0.8574
vn 0.3049 0.6043 -0.7361
vn 0.8574 -0.3725 0.3551
vn 0.7361 0.6043 -0.3049
vn 0.9239 0.0000 -0.3826
vn -0.6916 0.6630 -0.2865
vn 0.0000 1.0000 -0.0000
vn -0.6919 0.6627 -0.2865
vn -0.2880 0.6584 0.6954
vn 0.6927 0.6606 0.2896
vn 0.2896 0.6606 -0.6927
vn -0.2896 0.6606 -0.6927
vn -0.6946 0.6606 0.2848
vn 0.2896 0.6606 0.6927
vn 0.6927 0.6606 -0.2896
vn 0.4639 -0.8648 -0.1921
vn 0.1921 -0.8648 0.4639
vn -0.4639 -0.8648 0.1921
vn -0.1921 -0.8648 -0.4639
vn 0.1921 -0.8648 -0.4639
vn 0.4639 -0.8648 0.1921
vn -0.1921 -0.8648 0.4639
vn -0.4639 -0.8648 -0.1921
vn -0.9072 0.1889 -0.3758
vn -0.3758 0.1889 0.9072
vn 0.9072 0.1889 0.3758
vn 0.3758 0.1889 -0.9072
vn -0.3758 0.1889 -0.9072
vn -0.9072 0.1889 0.3758
vn 0.3758 0.1889 0.9072
vn 0.9072 0.1889 -0.3758
vn 0.8518 0.3872 -0.3529
vn 0.3529 0.3872 0.8518
vn -0.8518 0.3872 0.3529
vn -0.3529 0.3872 -0.8518
vn 0.3529 0.3872 -0.8518
vn 0.8518 0.3872 0.3529
vn -0.3529 0.3872 0.8518
vn -0.8518 0.3872 -0.3529
usemtl None.003
s 1
f 1/1/1 2/2/1 3/3/1 4/4/1
f 5/5/2 6/6/2 7/7/2 8/8/2
f 9/9/3 10/10/3 11/11/3
f 12/12/4 1/1/4 4/4/4 13/13/4
f 2/2/5 5/5/5 8/8/5 3/3/5
f 6/6/6 9/9/6 11/11/6 7/7/6
f 14/14/7 12/12/7 13/13/7 15/15/7
f 13/13/8 4/4/8 16/16/8 17/17/8
f 3/3/9 8/8/9 18/18/9 19/19/9
f 7/7/10 11/11/10 20/20/10 21/21/10
f 4/4/11 3/3/11 19/19/11 16/16/11
f 8/8/12 7/7/12 21/21/12 18/18/12
f 11/11/13 10/22/13 20/20/13
f 21/21/14 20/20/14 22/23/14 23/24/14
f 16/16/15 19/19/15 24/25/15 25/26/15
f 18/18/16 21/21/16 23/24/16 26/27/16
f 20/20/17 10/28/17 22/23/17
f 17/17/18 16/16/18 25/26/18 27/29/18
f 19/19/19 18/18/19 26/27/19 24/25/19
f 28/30/20 27/29/20 29/31/20 30/32/20
f 25/26/21 24/25/21 31/33/21 32/34/21
f 26/27/22 23/24/22 33/35/22 34/36/22
f 22/23/23 10/37/23 35/38/23
f 27/29/24 25/26/24 32/34/24 29/31/24
f 24/25/25 26/27/25 34/36/25 31/33/25
f 23/24/26 22/23/26 35/38/26 33/35/26
f 35/38/27 10/39/27 36/40/27
f 29/31/28 32/34/28 37/41/28 38/42/28
f 31/33/29 34/36/29 39/43/29 40/44/29
f 33/35/30 35/38/30 36/40/30 41/45/30
f 30/32/31 29/31/31 38/42/31 42/46/31
f 32/34/32 31/33/32 40/44/32 37/41/32
f 34/36/33 33/35/33 41/45/33 39/43/33
f 38/42/34 37/41/34 43/47/34 44/48/34
f 40/44/35 39/43/35 45/49/35 46/50/35
f 41/45/36 36/40/36 47/51/36 48/52/36
f 42/46/37 38/42/37 44/48/37 49/53/37
f 37/41/38 40/44/38 46/50/38 43/47/38
f 39/43/39 41/45/39 48/52/39 45/49/39
f 36/40/40 10/54/40 47/51/40
f 49/55/41 44/56/41 50/57/41 51/58/41
f 43/59/42 46/60/42 52/61/42 53/62/42
f 45/63/43 48/64/43 54/65/43 55/66/43
f 47/67/44 10/68/44 56/69/44
f 44/56/45 43/59/45 53/62/45 50/57/45
f 46/60/46 45/63/46 55/66/46 52/61/46
f 48/64/47 47/67/47 56/69/47 54/65/47
f 53/62/48 52/61/48 2/2/48 1/1/48
f 55/66/49 54/65/49 6/6/49 5/5/49
f 56/69/50 10/70/50 9/9/50
f 50/57/51 53/62/51 1/1/51 12/12/51
f 52/61/52 55/66/52 5/5/52 2/2/52
f 54/65/53 56/69/53 9/9/53 6/6/53
f 51/58/54 50/57/54 12/12/54 14/14/54
f 17/17/55 27/29/55 28/30/55 57/71/55
f 57/71/56 15/15/56 13/13/56 17/17/56
f 58/72/57 59/73/57 60/74/57 61/75/57
f 59/73/58 62/76/58 63/77/58 60/74/58
f 62/76/59 64/78/59 65/79/59 63/77/59
f 64/78/60 66/80/60 67/81/60 65/79/60
f 66/80/61 68/82/61 69/83/61 67/81/61
f 70/84/62 71/85/62 72/86/62 73/87/62
f 74/88/63 58/72/63 61/75/63 75/89/63
f 69/90/64 76/91/64 75/92/64 61/93/64 60/94/64 63/95/64 65/96/64 67/97/64
f 77/98/65 78/99/65 79/100/65 80/101/65
f 81/102/66 82/103/66 83/104/66 84/105/66
f 82/103/67 85/106/67 86/107/67 83/104/67
f 87/108/68 88/109/68 89/110/68 90/111/68
f 90/111/69 89/110/69 91/112/69 92/113/69
f 92/113/70 91/112/70 93/114/70 94/115/70
f 94/115/71 93/114/71 95/116/71 96/117/71
f 96/117/72 95/116/72 71/85/72 70/84/72
f 97/118/73 98/119/73 99/120/73 100/121/73
f 73/87/74 72/86/74 101/122/74 102/123/74
f 103/124/75 104/125/75 105/126/75 106/127/75
f 107/128/76 104/125/76 103/124/76 108/129/76
f 109/130/77 107/128/77 108/129/77 110/131/77
f 111/132/78 109/130/78 110/131/78 112/133/78
f 113/134/79 111/132/79 112/133/79 114/135/79
f 98/119/80 113/134/80 114/135/80 99/120/80
f 80/101/81 79/100/81 115/136/81 86/137/81
f 116/138/82 117/139/82 72/86/82 71/85/82
f 118/140/83 116/138/83 71/85/83 95/116/83
f 119/141/84 118/140/84 95/116/84 93/114/84
f 81/102/85 119/141/85 93/114/85 91/112/85
f 82/103/86 81/102/86 91/112/86 89/110/86
f 85/106/87 82/103/87 89/110/87 88/109/87
f 68/142/88 120/143/88 76/144/88 69/145/88
f 102/123/89 101/122/89 88/146/89 87/147/89
f 105/148/90 97/118/90 100/121/90 106/149/90
f 102/123/91 87/147/91 106/149/91 100/121/91
f 73/87/92 102/123/92 100/121/92 99/120/92
f 70/84/93 73/87/93 99/120/93 114/135/93
f 96/117/94 70/84/94 114/135/94 112/133/94
f 94/115/95 96/117/95 112/133/95 110/131/95
f 92/113/96 94/115/96 110/131/96 108/129/96
f 74/88/97 120/143/97 79/100/97 78/99/97
f 58/72/98 74/88/98 78/99/98 121/150/98
f 59/73/99 58/72/99 121/150/99 122/151/99
f 62/76/100 59/73/100 122/151/100 123/152/100
f 64/78/101 62/76/101 123/152/101 124/153/101
f 66/80/102 64/78/102 124/153/102 125/154/102
f 68/82/103 66/80/103 125/154/103 115/155/103
f 87/108/104 90/111/104 103/124/104 106/127/104
f 120/143/105 68/142/105 115/136/105 79/100/105
f 119/141/106 81/102/106 84/105/106 126/156/106
f 118/140/107 119/141/107 126/156/107 127/157/107
f 83/104/108 86/107/108 115/155/108 125/154/108
f 116/138/109 118/140/109 127/157/109 128/158/109
f 83/104/110 125/154/110 124/153/110 84/105/110
f 117/139/111 116/138/111 128/158/111 77/98/111
f 84/105/112 124/153/112 123/152/112 126/156/112
f 129/159/113 117/139/113 77/98/113 80/101/113
f 126/156/114 123/152/114 122/151/114 127/157/114
f 85/160/115 129/159/115 80/101/115 86/137/115
f 127/157/116 122/151/116 121/150/116 128/158/116
f 129/159/117 85/160/117 88/146/117 101/122/117
f 128/158/118 121/150/118 78/99/118 77/98/118
f 117/139/119 129/159/119 101/122/119 72/86/119
f 120/143/120 74/88/120 75/89/120 76/144/120
f 90/111/121 92/113/121 108/129/121 103/124/121
f 28/161/122 57/162/122 15/163/122 14/164/122 51/165/122 49/166/122 42/167/122 30/168/122
f 130/169/123 131/170/123 49/166/123 51/165/123
f 132/171/124 133/172/124 30/168/124 42/167/124
f 134/173/125 135/174/125 57/162/125 28/161/125
f 136/175/126 137/176/126 14/177/126 15/163/126
f 137/178/127 130/169/127 51/165/127 14/164/127
f 131/170/128 132/171/128 42/167/128 49/166/128
f 133/172/129 134/173/129 28/161/129 30/168/129
f 135/174/130 136/175/130 15/163/130 57/162/130
f 138/179/131 139/180/131 136/175/131 135/174/131
f 140/181/132 141/182/132 134/173/132 133/172/132
f 142/183/133 143/184/133 132/171/133 131/170/133
f 144/185/134 145/186/134 130/169/134 137/178/134
f 139/180/135 144/187/135 137/176/135 136/175/135
f 141/182/136 138/179/136 135/174/136 134/173/136
f 143/184/137 140/181/137 133/172/137 132/171/137
f 145/186/138 142/183/138 131/170/138 130/169/138
f 146/188/139 147/189/139 142/183/139 145/186/139
f 148/190/140 149/191/140 140/181/140 143/184/140
f 150/192/141 151/193/141 138/179/141 141/182/141
f 152/194/142 153/195/142 144/187/142 139/180/142
f 153/196/143 146/188/143 145/186/143 144/185/143
f 147/189/144 148/190/144 143/184/144 142/183/144
f 149/191/145 150/192/145 141/182/145 140/181/145
f 151/193/146 152/194/146 139/180/146 138/179/146
f 98/119/147 97/118/147 152/194/147 151/193/147
f 111/132/148 113/134/148 150/192/148 149/191/148
f 107/128/149 109/130/149 148/190/149 147/189/149
f 105/126/150 104/125/150 146/188/150 153/196/150
f 97/118/151 105/148/151 153/195/151 152/194/151
f 113/134/152 98/119/152 151/193/152 150/192/152
f 109/130/153 111/132/153 149/191/153 148/190/153
f 104/125/154 107/128/154 147/189/154 146/188/154
